<svg width="150" height="113" viewBox="0 0 150 113" fill="none" xmlns="http://www.w3.org/2000/svg">
<path d="M119.918 50.7065L121.957 42.0652H127.337L122.935 50.7065H119.918Z" fill="#FF6500"/>
<path d="M125.543 81.1956V84.8801C125.543 85.2977 125.442 85.6598 125.239 85.9666C125.037 86.2707 124.746 86.5027 124.367 86.6625C123.988 86.8223 123.54 86.9022 123.023 86.9022C122.241 86.9022 121.626 86.7243 121.177 86.3686C120.727 86.0129 120.498 85.5258 120.489 84.9072V81.1956H122.045V84.9343C122.062 85.5503 122.388 85.8583 123.023 85.8583C123.343 85.8583 123.585 85.781 123.75 85.6263C123.914 85.4717 123.997 85.2204 123.997 84.8724V81.1956H125.543Z" fill="#39B54A"/>
<path d="M131.549 82.2434H129.624V86.8248H128.077V82.2434H126.187V81.1956H131.549V82.2434Z" fill="#39B54A"/>
<path d="M136.247 84.5824H133.753V86.8248H132.206V81.1956H136.498V82.2434H133.753V83.5386H136.247V84.5824Z" fill="#39B54A"/>
<path d="M139.631 85.2938L140.909 81.1956H142.636L140.477 86.8248H138.785L136.643 81.1956H138.357L139.631 85.2938Z" fill="#39B54A"/>
<path d="M81.3587 82.9076H74.3478V86.0055H82.4185L84.538 83.8859L90.6522 93.3424L95.8696 57.7989L106.304 101.576L109.402 84.5381L111.766 86.1685H120V82.9076H111.766L107.283 79.7283L105.652 87.6359L95.8696 43.5326L88.7772 86.0055L84.538 79.7283L81.3587 82.9076Z" fill="#FF6500"/>
<rect x="143.152" y="82.337" width="6.84783" height="3.58696" fill="#FF6500"/>
<path d="M31.1699 35.5925C31.8866 37.7572 33.5025 39.2327 35.215 40.5434C37.705 42.4494 40.3191 44.1932 42.8823 46.0035C43.72 46.5952 44.5057 47.2471 45.0934 48.0941C45.5767 48.7908 45.8521 49.5919 45.189 50.2859C44.5368 50.9685 43.6752 51.2251 42.7627 50.7535C41.2353 49.9641 40.1526 48.6403 38.947 47.4731C37.4535 46.0272 35.9602 44.5848 34.2676 43.3699C33.8379 43.0614 33.3847 42.7721 32.9091 42.5427C30.753 41.5028 29.7257 41.8721 28.6352 44.0682C28.0051 43.9291 28.0251 43.3904 28.0126 42.9463C27.9761 41.6611 28.0102 40.3743 27.9849 39.0885C27.9401 36.8106 26.5891 35.8075 24.3679 36.4081C21.5985 37.1567 19.6174 39.0627 17.6938 41.0334C16.9638 41.7815 16.2946 42.589 15.4998 43.3017C15.9909 39.8984 17.2316 36.9364 20.2397 34.9643C20.6615 34.6878 21.4128 34.561 21.311 33.9413C21.2162 33.3634 20.5557 33.1148 20.0061 32.9249C17.2201 31.9623 14.4009 31.6271 11.5019 32.5194C13.288 30.7285 15.5646 30.1397 17.9459 29.8418C19.177 29.6878 20.422 29.6476 21.6595 29.5437C22.5302 29.4704 23.217 29.0431 23.4842 28.2183C23.7544 27.3841 23.2151 26.7958 22.6085 26.2928C21.1251 25.0633 19.4288 24.2116 17.6563 23.4957C17.5201 23.2756 17.3389 23.1531 17.068 23.2282C16.9676 23.1739 16.8671 23.1192 16.7667 23.0654C16.7725 22.9242 16.7779 22.7822 16.7835 22.6405C19.8492 23.0404 22.7915 24.0768 25.8761 24.389C26.9813 24.5009 28.0744 24.7031 29.1646 24.3096C30.201 23.9355 30.4101 23.3894 29.7211 22.5395C29.2506 21.959 28.6464 21.4879 28.1109 20.9591C23.8471 16.7459 20.5994 11.9104 19.1458 6.02272C18.6615 4.06052 18.4856 2.04398 18.7992 0C19.5694 2.15322 20.0386 4.38956 20.9839 6.48469C23.6254 12.3406 27.8069 16.6548 33.6399 19.3235C34.5442 19.7373 35.7556 20.507 36.5911 19.53C37.3677 18.6218 36.5855 17.4786 36.1507 16.5488C34.4917 12.999 33.6013 9.29384 33.6189 5.36998C33.6253 3.94676 33.9032 2.57656 34.4666 1.19836C34.623 2.57096 34.7336 3.95076 34.9441 5.31537C35.7796 10.7309 38.0004 15.6035 41.3656 19.8436C43.7106 22.7982 45.249 25.7992 45.2788 29.6732C45.3068 33.2867 47.3649 36.0641 49.9937 38.4006C51.4859 39.7269 53.1329 40.8336 54.8726 41.8188C56.5953 42.7942 57.2131 44.9479 56.4245 46.9317C55.6253 48.9427 52.1248 52.5297 49.9345 53.5603C49.955 48.7359 47.03 45.9419 43.2396 43.6944C39.4061 41.4213 35.3394 39.4783 32.2228 36.1555C32.0792 36.0023 31.9932 35.7956 31.8805 35.6144C31.7118 35.0557 31.3751 34.6142 30.9235 34.0931C30.8417 34.7304 30.7911 35.2012 31.1699 35.5925ZM41.1778 34.6313C41.0462 33.8318 40.4371 33.6053 39.7855 33.4124C37.9962 32.8828 36.5836 31.917 35.9679 30.0542C35.9021 29.8552 35.8006 29.5925 35.8763 29.4385C36.0257 29.1348 36.3302 29.276 36.578 29.3572C37.2515 29.5781 37.9229 29.8051 38.6804 30.0579C37.5409 27.5218 34.7818 26.2801 32.2013 27.1526C33.2557 27.7733 33.7316 28.7935 33.9479 29.7886C34.5625 32.6169 38.1755 34.481 41.1778 34.6313ZM51.2813 48.1807C51.3625 46.5584 50.96 45.2642 50.6224 43.9877C50.4751 43.4312 49.8453 43.5458 49.3649 43.7165C48.9224 43.874 48.6746 44.2105 48.9037 44.6322C49.5367 45.7978 50.0635 47.0444 51.2813 48.1807ZM53.3226 46.5595C53.5227 46.8211 53.0711 47.4555 53.7784 47.3971C54.4757 47.3393 55.3831 44.9914 54.9885 44.3754C54.798 44.0781 54.5718 43.7749 54.1573 43.8543C53.7617 43.9299 53.7974 44.3011 53.735 44.5907C53.597 45.2338 53.4649 45.8785 53.3226 46.5595Z" fill="#39B54A"/>
<path d="M105.625 108.398C95.7939 107.287 86.9953 103.718 79.2582 97.5754C80.0873 97.5568 80.2194 97.6311 81.1868 98.2362C88.2219 102.636 95.8269 105.266 104.153 105.793C111.105 106.233 117.87 105.358 124.455 103.156C127.602 102.104 130.663 100.824 133.55 99.1465C134.437 98.6313 134.264 98.2988 133.609 97.8717C132.603 97.2163 131.562 96.6225 130.253 96.4386C136.461 95.4987 141.449 92.4223 145.639 87.842C145.657 92.376 141.366 102.717 136.407 106.4C136.66 104.977 136.972 103.678 136.77 102.329C136.65 101.525 136.519 101.176 135.663 101.729C128.459 106.386 120.544 109.257 112.161 110.848C102.095 112.759 92.0293 112.618 82.0364 110.338C77.4129 109.283 72.9261 107.752 68.6519 105.655C68.2949 105.48 67.918 105.346 67.5599 105.173C66.8477 104.829 66.6807 105.202 66.7286 105.811C66.8168 106.927 67.188 107.973 67.5793 109.01C67.684 109.288 67.9664 109.589 67.5934 109.817C67.327 109.98 67.0966 109.691 66.9005 109.539C65.0651 108.111 64.0991 106.136 63.5385 103.954C63.307 103.052 62.8266 102.531 62.0351 102.079C60.7328 101.335 59.4591 100.513 58.282 99.5856C57.268 98.7869 56.8551 99.3623 56.5623 100.174C55.9412 101.897 56.1848 103.674 56.3555 105.442C56.4416 106.335 56.8545 107.229 56.4117 108.266C54.6331 106.996 53.7745 105.215 53.0791 103.349C52.169 100.906 51.8349 98.3587 51.9918 95.7616C52.0443 94.8944 51.7779 94.2473 51.1907 93.6281C49.6015 91.9524 47.8013 90.5123 46.0879 88.9756C45.7925 88.7108 45.4376 88.5185 45.4365 87.9811C46.8097 88.021 47.9377 88.7103 49.0266 89.3041C55.1625 92.6491 61.2393 96.1029 67.3603 99.4756C75.3399 103.872 83.7772 106.933 92.8379 108.215C97.0823 108.815 101.321 108.838 105.625 108.398ZM139.074 94.9722C137.278 95.6007 135.865 96.0949 134.452 96.5894C135.152 96.8415 135.351 98.0678 136.161 97.658C137.228 97.1193 138.236 96.3957 139.074 94.9722Z" fill="#39B54A"/>
<path d="M70.3264 90.4327C63.3046 88.2424 56.4512 85.6291 49.9041 82.2562C43.8199 79.1218 38.0409 75.5683 33.6277 70.1788C30.7831 66.7052 28.5755 62.841 26.6437 58.8056C25.708 56.8508 24.8432 54.8585 23.6888 53.0149C21.7789 49.9641 19.3512 49.6273 16.6825 52.0973C15.1935 53.4755 13.8264 54.9875 12.315 56.3396C10.6989 57.7854 8.60939 57.1402 7.96864 55.0306C7.36733 53.0511 7.69423 51.0647 8.21588 49.1302C9.21123 45.4387 10.8503 42.0032 12.5737 38.6082C12.7096 38.3407 12.9339 38.1179 13.3165 37.6093C13.0946 39.0416 12.8921 40.1737 12.749 41.3131C12.5061 43.2474 12.1741 45.181 12.5223 47.14C12.6406 47.8053 12.745 48.5571 13.4244 48.8214C14.2426 49.1395 14.8943 48.5238 15.4007 48.0115C16.5796 46.8185 17.6768 45.5431 18.7832 44.2805C20.7462 42.0407 22.385 42.0605 24.2179 44.3813C26.2206 46.9173 27.2282 49.9814 28.6 52.8404C34.0779 64.2552 41.6741 73.7635 52.5875 80.4728C58.4816 84.0961 64.5595 87.322 70.9442 89.975C70.8963 90.3413 70.5651 90.3245 70.3264 90.4327Z" fill="#39B54A"/>
<path d="M125.791 9.29224C123.684 10.5623 121.485 11.5304 119.312 12.537C114.576 14.7312 109.762 16.7392 104.795 18.3657C98.8726 20.3053 92.8622 21.7509 86.5765 21.672C81.8116 21.6121 77.1353 20.8464 72.4788 19.8998C70.3091 19.4589 68.1284 19.0457 65.9344 18.7563C63.1237 18.3857 61.34 19.7005 60.7187 22.4726C60.4091 23.854 60.1574 25.2485 59.8933 26.6397C59.1602 30.5015 54.3147 31.374 51.6439 30.0481C49.7081 29.0871 48.2462 27.6215 46.8171 25.9212C47.6398 25.6681 48.0544 26.2473 48.5268 26.5337C49.605 27.1872 50.7205 27.6932 51.9905 27.7696C53.5589 27.8642 54.5902 27.2205 55.2552 25.7805C55.9967 24.1748 56.1959 22.4772 56.2191 20.7262C56.245 18.7792 56.0529 16.8197 56.4605 14.8876C56.9616 12.5114 58.3175 11.5488 60.7003 12.0883C64.8456 13.0269 68.9557 14.1283 73.1401 14.8871C82.5301 16.5898 91.9228 17.3563 101.424 15.5478C108.926 14.1201 116.22 12.0028 123.461 9.64631C123.921 9.49658 124.391 9.33993 124.867 9.29304C125.136 9.2664 125.399 8.96241 125.791 9.29224Z" fill="#39B54A"/>
<path d="M8.00301 43.6235C7.69903 45.5186 6.7535 47.1984 6.18415 49.0093C4.06051 55.7657 3.54285 62.6396 4.29976 69.6478C4.3946 70.5262 4.69539 70.7655 5.63319 70.7242C9.44515 70.5563 13.0663 71.1225 16.1057 74.4304C16.5306 68.5952 17.1927 63.1746 20.9042 58.7374C20.3093 60.6604 19.8753 62.6047 19.5582 64.5925C18.9527 68.3887 19.3707 72.108 20.0732 75.8285C20.2877 76.9651 20.7782 77.3 22.0663 77.1026C25.9654 76.505 29.731 77.4295 33.4452 78.5503C42.358 81.2398 50.542 85.5327 58.6444 90.0038C58.5498 90.1143 58.4557 90.2249 58.3617 90.3357C52.2074 87.7285 45.9819 85.3174 39.5478 83.4754C36.6454 82.6444 33.6948 82.0354 30.712 81.5992C25.5191 80.8399 20.9215 81.8633 17.3725 86.5131C17.1559 85.3619 17.0211 84.4819 16.8221 83.6166C16.0535 80.2722 14.5362 77.4894 11.1231 76.1624C9.00103 75.3373 6.85634 75.5808 4.71031 76.0395C4.40926 76.104 4.12125 76.2271 3.82419 76.3132C1.0622 77.113 1.05421 77.1135 0.677227 74.295C0.153443 70.377 -0.262974 66.4505 0.200333 62.4958C0.701471 58.2173 2.30559 54.2817 4.11513 50.429C5.05266 48.4332 6.15058 46.5129 7.16725 44.5536C7.36733 44.1681 7.52878 43.7631 7.99129 43.6142C7.99235 43.6142 8.00301 43.6235 8.00301 43.6235Z" fill="#39B54A"/>
<path d="M59.9013 34.8487C63.4839 36.1278 66.758 37.9232 69.4904 40.6122C69.934 41.0486 70.2166 41.1322 70.5963 40.508C73.5602 35.6333 77.7963 33.0818 83.6144 33.4641C83.6821 33.4686 83.7554 33.3828 84.0093 33.2262C80.0678 28.2494 74.2604 26.4487 68.6746 23.9236C70.3283 23.6609 71.6606 24.3645 72.9877 24.7111C77.4625 25.8802 81.7359 27.5666 85.4256 30.4818C86.2536 31.1361 86.8834 32.5138 87.7687 32.4267C88.4862 32.3561 89.0201 30.952 89.7355 30.2396C92.8483 27.1395 96.6182 24.997 100.506 23.0601C106.097 20.2739 111.846 17.8569 117.808 15.9682C118.44 15.7681 118.963 15.1258 119.881 15.5705C117.779 16.5432 115.746 17.433 113.758 18.4132C107.563 21.4674 101.41 24.5989 96.1448 29.1766C93.1979 31.7388 91.5532 34.8772 91.9734 38.8805C92.0645 39.7477 91.7307 39.5961 91.151 39.4082C89.3414 38.8224 87.5218 38.3362 85.6025 38.1315C79.5376 37.4849 74.4293 40.1462 71.7541 45.6398C71.1635 46.8531 70.9322 46.5283 70.3736 45.6976C67.2231 41.0147 63.1503 37.369 58.067 34.8804C58.4389 34.261 58.9745 34.8817 59.4039 34.7038C59.5318 34.7408 59.6597 34.7781 59.7868 34.8151C59.7862 34.8151 59.8273 34.9054 59.8273 34.9054L59.9013 34.8487Z" fill="#39B54A"/>
</svg>
