<svg width="150" height="49" viewBox="0 0 150 49" fill="none" xmlns="http://www.w3.org/2000/svg">
<path d="M27.41 0L26.3136 4.30439H18.1109L12.7101 25.9887H2.80191L8.2027 4.30439H0L1.0964 0H27.41Z" fill="#FF6500"/>
<path d="M58.475 0L53.8864 18.2733C53.1825 21.0617 52.1673 23.0515 50.8408 24.2426C49.5414 25.4067 47.6599 25.9887 45.1964 25.9887H31.1462C27.6269 25.9887 25.8672 24.3915 25.8672 21.1971C25.8672 20.3308 26.0026 19.3562 26.2733 18.2733L30.862 0H40.7702L35.9379 19.3291C35.8567 19.654 35.8161 19.9518 35.8161 20.2225C35.8161 21.1971 36.4252 21.6844 37.6434 21.6844H46.4146C47.308 21.6844 47.9441 21.549 48.3231 21.2783C48.7292 21.0076 49.0405 20.4391 49.2571 19.5728L54.1706 0H58.475Z" fill="#FF6500"/>
<path d="M92.7899 0L76.2626 25.9887H65.1768L62.2125 0H72.7704L75.0444 20.4661L88.0388 0H92.7899Z" fill="#FF6500"/>
<path d="M120.426 0L119.33 4.30439H105.645C104.508 4.30439 103.845 4.65632 103.655 5.36018L103.209 7.02509C103.181 7.16044 103.168 7.26873 103.168 7.34994C103.168 7.81016 103.682 8.04027 104.711 8.04027H112.102C115.621 8.04027 117.381 9.21788 117.381 11.5731C117.381 12.0333 117.313 12.5206 117.177 13.035L115.472 19.857C114.443 23.9448 111.98 25.9887 108.081 25.9887H88.9147L89.9705 21.6844H103.858C104.887 21.6844 105.496 21.3054 105.686 20.5474L106.132 18.7606C106.186 18.5982 106.213 18.4493 106.213 18.3139C106.213 17.8537 105.726 17.6236 104.752 17.6236H96.2646C93.4492 17.6236 92.0415 16.5949 92.0415 14.5375C92.0415 13.8877 92.1498 13.1027 92.3663 12.1822L93.9094 5.96929C94.3426 4.23671 95.1141 2.84252 96.224 1.78673C97.4423 0.595576 98.9312 0 100.691 0H120.426Z" fill="#FF6500"/>
<path d="M150 25.9887H139.483L138.264 19.0043H126.854L121.697 25.9887H116.905L135.828 0H145.736L150 25.9887ZM137.615 14.6999L136.112 5.92868L129.94 14.6999H137.615Z" fill="#FF6500"/>
<path d="M1.59128 38.2538V33.7982H0V32.891H4.26171V33.7982H2.67408V38.2538H1.59128Z" fill="black"/>
<path d="M5.52376 38.2538H4.49583V34.3688H5.4506V34.9212C5.61399 34.6603 5.76032 34.4883 5.88957 34.4054C6.02126 34.3225 6.17003 34.281 6.33586 34.281C6.56998 34.281 6.79556 34.3457 7.01261 34.4749L6.69436 35.3712C6.52121 35.259 6.36025 35.2029 6.21149 35.2029C6.0676 35.2029 5.94566 35.2431 5.84567 35.3236C5.74568 35.4016 5.66643 35.5443 5.6079 35.7516C5.5518 35.9589 5.52376 36.393 5.52376 37.0539V38.2538Z" fill="black"/>
<path d="M8.22711 35.5541L7.29429 35.3858C7.39915 35.0102 7.57962 34.7322 7.83569 34.5517C8.09176 34.3713 8.4722 34.281 8.97702 34.281C9.43551 34.281 9.77693 34.3359 10.0013 34.4457C10.2257 34.553 10.383 34.6907 10.4732 34.859C10.5659 35.0249 10.6122 35.3309 10.6122 35.7772L10.6012 36.9771C10.6012 37.3185 10.6171 37.5709 10.6488 37.7343C10.6829 37.8953 10.7451 38.0684 10.8353 38.2538H9.81839C9.79156 38.1855 9.75864 38.0843 9.71962 37.9501C9.70255 37.8892 9.69036 37.8489 9.68304 37.8294C9.50745 38.0001 9.31967 38.1282 9.11969 38.2135C8.91971 38.2989 8.70632 38.3415 8.47952 38.3415C8.07956 38.3415 7.76375 38.233 7.53207 38.016C7.30282 37.7989 7.1882 37.5246 7.1882 37.1929C7.1882 36.9734 7.24064 36.7783 7.3455 36.6076C7.45037 36.4344 7.59669 36.3028 7.78448 36.2125C7.9747 36.1199 8.24784 36.0394 8.60389 35.9711C9.08433 35.8809 9.41722 35.7967 9.60256 35.7187V35.6163C9.60256 35.4187 9.55379 35.2785 9.45624 35.1956C9.35869 35.1102 9.17456 35.0675 8.90386 35.0675C8.72095 35.0675 8.57829 35.1041 8.47586 35.1773C8.37343 35.248 8.29052 35.3736 8.22711 35.5541ZM9.60256 36.3881C9.47087 36.432 9.26236 36.4844 8.97702 36.5454C8.69169 36.6064 8.50513 36.6661 8.41733 36.7247C8.2832 36.8198 8.21613 36.9405 8.21613 37.0868C8.21613 37.2307 8.26979 37.3551 8.37709 37.4599C8.4844 37.5648 8.62097 37.6172 8.7868 37.6172C8.97215 37.6172 9.14895 37.5563 9.31723 37.4343C9.4416 37.3417 9.5233 37.2283 9.56232 37.0941C9.58915 37.0063 9.60256 36.8393 9.60256 36.593V36.3881Z" fill="black"/>
<path d="M15.1629 38.2538H14.135V36.2711C14.135 35.8516 14.113 35.5809 14.0691 35.459C14.0252 35.3346 13.9533 35.2382 13.8533 35.17C13.7557 35.1017 13.6375 35.0675 13.4985 35.0675C13.3204 35.0675 13.1607 35.1163 13.0192 35.2139C12.8778 35.3114 12.7802 35.4407 12.7266 35.6016C12.6754 35.7626 12.6498 36.0601 12.6498 36.4942V38.2538H11.6218V34.3688H12.5766V34.9395C12.9156 34.5005 13.3424 34.281 13.857 34.281C14.0838 34.281 14.291 34.3225 14.4788 34.4054C14.6666 34.4859 14.8081 34.5895 14.9032 34.7164C15.0007 34.8432 15.0678 34.9871 15.1044 35.148C15.1434 35.309 15.1629 35.5394 15.1629 35.8394V38.2538Z" fill="black"/>
<path d="M15.847 37.1453L16.8786 36.988C16.9225 37.188 17.0115 37.3404 17.1456 37.4453C17.2797 37.5477 17.4675 37.599 17.709 37.599C17.9748 37.599 18.1748 37.5502 18.3089 37.4526C18.3991 37.3843 18.4442 37.2929 18.4442 37.1783C18.4442 37.1002 18.4198 37.0356 18.3711 36.9844C18.3199 36.9356 18.2052 36.8905 18.0272 36.849C17.198 36.6661 16.6725 36.4991 16.4506 36.3479C16.1433 36.1381 15.9896 35.8467 15.9896 35.4736C15.9896 35.137 16.1225 34.8541 16.3884 34.6249C16.6542 34.3957 17.0663 34.281 17.6248 34.281C18.1565 34.281 18.5515 34.3676 18.81 34.5408C19.0686 34.7139 19.2466 34.97 19.3441 35.309L18.3747 35.4882C18.3333 35.337 18.254 35.2212 18.137 35.1407C18.0223 35.0602 17.8577 35.02 17.6431 35.02C17.3724 35.02 17.1785 35.0578 17.0615 35.1334C16.9834 35.187 16.9444 35.2565 16.9444 35.3419C16.9444 35.4151 16.9785 35.4772 17.0468 35.5285C17.1395 35.5967 17.459 35.6931 18.0053 35.8174C18.554 35.9418 18.9369 36.0942 19.1539 36.2747C19.3685 36.4576 19.4758 36.7125 19.4758 37.0393C19.4758 37.3953 19.3271 37.7014 19.0295 37.9574C18.732 38.2135 18.2918 38.3415 17.709 38.3415C17.1797 38.3415 16.7603 38.2342 16.4506 38.0196C16.1433 37.805 15.9421 37.5136 15.847 37.1453Z" fill="black"/>
<path d="M20.3501 34.3688H21.3085V34.9395C21.4329 34.7444 21.6012 34.5859 21.8134 34.4639C22.0255 34.342 22.2609 34.281 22.5194 34.281C22.9705 34.281 23.3534 34.4578 23.668 34.8115C23.9826 35.1651 24.1399 35.6577 24.1399 36.2893C24.1399 36.9381 23.9814 37.4429 23.6644 37.8038C23.3473 38.1623 22.9632 38.3415 22.5121 38.3415C22.2975 38.3415 22.1024 38.2989 21.9268 38.2135C21.7536 38.1282 21.5707 37.9818 21.378 37.7745V39.7316H20.3501V34.3688ZM21.3671 36.2454C21.3671 36.682 21.4536 37.0051 21.6268 37.2148C21.7999 37.4221 22.0109 37.5258 22.2597 37.5258C22.4986 37.5258 22.6974 37.4307 22.8559 37.2405C23.0144 37.0478 23.0937 36.7332 23.0937 36.2967C23.0937 35.8894 23.012 35.587 22.8486 35.3894C22.6852 35.1919 22.4828 35.0931 22.2414 35.0931C21.9902 35.0931 21.7817 35.1907 21.6158 35.3858C21.45 35.5785 21.3671 35.865 21.3671 36.2454Z" fill="black"/>
<path d="M24.7216 36.2564C24.7216 35.915 24.8057 35.5845 24.974 35.2651C25.1422 34.9456 25.38 34.7017 25.6873 34.5334C25.997 34.3652 26.3421 34.281 26.7226 34.281C27.3103 34.281 27.7919 34.4725 28.1675 34.8554C28.5431 35.2358 28.7309 35.7175 28.7309 36.3003C28.7309 36.8881 28.5406 37.3758 28.1602 37.7636C27.7822 38.1489 27.3054 38.3415 26.7299 38.3415C26.3738 38.3415 26.0336 38.2611 25.7093 38.1001C25.3873 37.9392 25.1422 37.7038 24.974 37.3941C24.8057 37.0819 24.7216 36.7027 24.7216 36.2564ZM25.7751 36.3113C25.7751 36.6966 25.8666 36.9917 26.0495 37.1966C26.2324 37.4014 26.458 37.5038 26.7262 37.5038C26.9945 37.5038 27.2188 37.4014 27.3993 37.1966C27.5822 36.9917 27.6737 36.6942 27.6737 36.304C27.6737 35.9235 27.5822 35.6309 27.3993 35.426C27.2188 35.2212 26.9945 35.1187 26.7262 35.1187C26.458 35.1187 26.2324 35.2212 26.0495 35.426C25.8666 35.6309 25.7751 35.926 25.7751 36.3113Z" fill="black"/>
<path d="M30.5233 38.2538H29.4954V34.3688H30.4502V34.9212C30.6136 34.6603 30.7599 34.4883 30.8892 34.4054C31.0208 34.3225 31.1696 34.281 31.3354 34.281C31.5696 34.281 31.7951 34.3457 32.0122 34.4749L31.6939 35.3712C31.5208 35.259 31.3598 35.2029 31.2111 35.2029C31.0672 35.2029 30.9452 35.2431 30.8453 35.3236C30.7453 35.4016 30.666 35.5443 30.6075 35.7516C30.5514 35.9589 30.5233 36.393 30.5233 37.0539V38.2538Z" fill="black"/>
<path d="M34.24 34.3688V35.1883H33.5376V36.7539C33.5376 37.071 33.5437 37.2563 33.5559 37.31C33.5706 37.3612 33.601 37.4039 33.6474 37.438C33.6961 37.4721 33.7547 37.4892 33.823 37.4892C33.9181 37.4892 34.0559 37.4563 34.2363 37.3904L34.3241 38.1879C34.0851 38.2903 33.8144 38.3415 33.512 38.3415C33.3267 38.3415 33.1596 38.3111 33.0109 38.2501C32.8621 38.1867 32.7524 38.1062 32.6816 38.0087C32.6133 37.9087 32.5658 37.7745 32.539 37.6063C32.517 37.4868 32.506 37.2453 32.506 36.882V35.1883H32.0341V34.3688H32.506V33.597L33.5376 32.997V34.3688H34.24Z" fill="black"/>
<path d="M34.9533 33.8421V32.891H35.9813V33.8421H34.9533ZM34.9533 38.2538V34.3688H35.9813V38.2538H34.9533Z" fill="black"/>
<path d="M36.6763 37.1453L37.7079 36.988C37.7518 37.188 37.8408 37.3404 37.9749 37.4453C38.1091 37.5477 38.2968 37.599 38.5383 37.599C38.8041 37.599 39.0041 37.5502 39.1382 37.4526C39.2284 37.3843 39.2736 37.2929 39.2736 37.1783C39.2736 37.1002 39.2492 37.0356 39.2004 36.9844C39.1492 36.9356 39.0346 36.8905 38.8565 36.849C38.0274 36.6661 37.5018 36.4991 37.2799 36.3479C36.9726 36.1381 36.819 35.8467 36.819 35.4736C36.819 35.137 36.9519 34.8541 37.2177 34.6249C37.4835 34.3957 37.8957 34.281 38.4541 34.281C38.9858 34.281 39.3809 34.3676 39.6394 34.5408C39.8979 34.7139 40.0759 34.97 40.1735 35.309L39.2041 35.4882C39.1626 35.337 39.0833 35.2212 38.9663 35.1407C38.8517 35.0602 38.687 35.02 38.4724 35.02C38.2017 35.02 38.0079 35.0578 37.8908 35.1334C37.8128 35.187 37.7737 35.2565 37.7737 35.3419C37.7737 35.4151 37.8079 35.4772 37.8762 35.5285C37.9688 35.5967 38.2883 35.6931 38.8346 35.8174C39.3833 35.9418 39.7662 36.0942 39.9832 36.2747C40.1978 36.4576 40.3051 36.7125 40.3051 37.0393C40.3051 37.3953 40.1564 37.7014 39.8589 37.9574C39.5613 38.2135 39.1211 38.3415 38.5383 38.3415C38.0091 38.3415 37.5896 38.2342 37.2799 38.0196C36.9726 37.805 36.7714 37.5136 36.6763 37.1453Z" fill="black"/>
<path d="M42.9902 34.3688V35.1883H42.2879V36.7539C42.2879 37.071 42.2939 37.2563 42.3061 37.31C42.3208 37.3612 42.3513 37.4039 42.3976 37.438C42.4464 37.4721 42.5049 37.4892 42.5732 37.4892C42.6683 37.4892 42.8061 37.4563 42.9866 37.3904L43.0743 38.1879C42.8353 38.2903 42.5646 38.3415 42.2622 38.3415C42.0769 38.3415 41.9098 38.3111 41.7611 38.2501C41.6123 38.1867 41.5026 38.1062 41.4319 38.0087C41.3636 37.9087 41.316 37.7745 41.2892 37.6063C41.2672 37.4868 41.2563 37.2453 41.2563 36.882V35.1883H40.7844V34.3688H41.2563V33.597L42.2879 32.997V34.3688H42.9902Z" fill="black"/>
<path d="M44.4717 35.5541L43.5389 35.3858C43.6438 35.0102 43.8243 34.7322 44.0803 34.5517C44.3364 34.3713 44.7168 34.281 45.2217 34.281C45.6801 34.281 46.0216 34.3359 46.2459 34.4457C46.4703 34.553 46.6276 34.6907 46.7178 34.859C46.8105 35.0249 46.8568 35.3309 46.8568 35.7772L46.8459 36.9771C46.8459 37.3185 46.8617 37.5709 46.8934 37.7343C46.9276 37.8953 46.9898 38.0684 47.08 38.2538H46.063C46.0362 38.1855 46.0033 38.0843 45.9643 37.9501C45.9472 37.8892 45.935 37.8489 45.9277 37.8294C45.7521 38.0001 45.5643 38.1282 45.3643 38.2135C45.1644 38.2989 44.951 38.3415 44.7242 38.3415C44.3242 38.3415 44.0084 38.233 43.7767 38.016C43.5475 37.7989 43.4328 37.5246 43.4328 37.1929C43.4328 36.9734 43.4853 36.7783 43.5901 36.6076C43.695 36.4344 43.8413 36.3028 44.0291 36.2125C44.2193 36.1199 44.4925 36.0394 44.8485 35.9711C45.329 35.8809 45.6619 35.7967 45.8472 35.7187V35.6163C45.8472 35.4187 45.7984 35.2785 45.7009 35.1956C45.6033 35.1102 45.4192 35.0675 45.1485 35.0675C44.9656 35.0675 44.8229 35.1041 44.7205 35.1773C44.6181 35.248 44.5352 35.3736 44.4717 35.5541ZM45.8472 36.3881C45.7155 36.432 45.507 36.4844 45.2217 36.5454C44.9363 36.6064 44.7498 36.6661 44.662 36.7247C44.5278 36.8198 44.4608 36.9405 44.4608 37.0868C44.4608 37.2307 44.5144 37.3551 44.6217 37.4599C44.729 37.5648 44.8656 37.6172 45.0314 37.6172C45.2168 37.6172 45.3936 37.5563 45.5619 37.4343C45.6862 37.3417 45.7679 37.2283 45.807 37.0941C45.8338 37.0063 45.8472 36.8393 45.8472 36.593V36.3881Z" fill="black"/>
<path d="M47.5116 37.1453L48.5432 36.988C48.5871 37.188 48.6761 37.3404 48.8103 37.4453C48.9444 37.5477 49.1322 37.599 49.3736 37.599C49.6394 37.599 49.8394 37.5502 49.9736 37.4526C50.0638 37.3843 50.1089 37.2929 50.1089 37.1783C50.1089 37.1002 50.0845 37.0356 50.0357 36.9844C49.9845 36.9356 49.8699 36.8905 49.6919 36.849C48.8627 36.6661 48.3372 36.4991 48.1152 36.3479C47.808 36.1381 47.6543 35.8467 47.6543 35.4736C47.6543 35.137 47.7872 34.8541 48.053 34.6249C48.3189 34.3957 48.731 34.281 49.2895 34.281C49.8211 34.281 50.2162 34.3676 50.4747 34.5408C50.7332 34.7139 50.9113 34.97 51.0088 35.309L50.0394 35.4882C49.9979 35.337 49.9187 35.2212 49.8016 35.1407C49.687 35.0602 49.5224 35.02 49.3078 35.02C49.0371 35.02 48.8432 35.0578 48.7261 35.1334C48.6481 35.187 48.6091 35.2565 48.6091 35.3419C48.6091 35.4151 48.6432 35.4772 48.7115 35.5285C48.8042 35.5967 49.1237 35.6931 49.6699 35.8174C50.2187 35.9418 50.6015 36.0942 50.8186 36.2747C51.0332 36.4576 51.1405 36.7125 51.1405 37.0393C51.1405 37.3953 50.9917 37.7014 50.6942 37.9574C50.3967 38.2135 49.9565 38.3415 49.3736 38.3415C48.8444 38.3415 48.425 38.2342 48.1152 38.0196C47.808 37.805 47.6068 37.5136 47.5116 37.1453Z" fill="black"/>
<path d="M54.1292 32.891H55.212V35.7955C55.212 36.2564 55.2254 36.5552 55.2522 36.6917C55.2986 36.9112 55.4083 37.088 55.5815 37.2222C55.757 37.3539 55.996 37.4197 56.2984 37.4197C56.6057 37.4197 56.8374 37.3575 56.9935 37.2331C57.1496 37.1063 57.2435 36.9515 57.2752 36.7686C57.3069 36.5857 57.3227 36.282 57.3227 35.8577V32.891H58.4055V35.7077C58.4055 36.3515 58.3763 36.8064 58.3177 37.0722C58.2592 37.338 58.1507 37.5624 57.9922 37.7453C57.8361 37.9282 57.6263 38.0745 57.363 38.1842C57.0996 38.2916 56.7557 38.3452 56.3314 38.3452C55.8192 38.3452 55.4303 38.2867 55.1644 38.1696C54.901 38.0501 54.6925 37.8965 54.5389 37.7087C54.3852 37.5185 54.284 37.3197 54.2353 37.1124C54.1645 36.8051 54.1292 36.3515 54.1292 35.7516V32.891Z" fill="black"/>
<path d="M63.0769 38.2538H62.049V36.2711C62.049 35.8516 62.0271 35.5809 61.9832 35.459C61.9393 35.3346 61.8673 35.2382 61.7673 35.17C61.6698 35.1017 61.5515 35.0675 61.4125 35.0675C61.2345 35.0675 61.0747 35.1163 60.9333 35.2139C60.7918 35.3114 60.6943 35.4407 60.6406 35.6016C60.5894 35.7626 60.5638 36.0601 60.5638 36.4942V38.2538H59.5359V34.3688H60.4906V34.9395C60.8296 34.5005 61.2564 34.281 61.771 34.281C61.9978 34.281 62.2051 34.3225 62.3929 34.4054C62.5807 34.4859 62.7221 34.5895 62.8172 34.7164C62.9148 34.8432 62.9818 34.9871 63.0184 35.148C63.0574 35.309 63.0769 35.5394 63.0769 35.8394V38.2538Z" fill="black"/>
<path d="M64.1232 33.8421V32.891H65.1511V33.8421H64.1232ZM64.1232 38.2538V34.3688H65.1511V38.2538H64.1232Z" fill="black"/>
<path d="M69.7713 38.2538H68.8165V37.6831C68.658 37.905 68.4702 38.0708 68.2532 38.1806C68.0386 38.2879 67.8215 38.3415 67.602 38.3415C67.1557 38.3415 66.7729 38.1623 66.4534 37.8038C66.1363 37.4429 65.9778 36.9405 65.9778 36.2967C65.9778 35.6382 66.1327 35.1383 66.4424 34.7968C66.7521 34.453 67.1435 34.281 67.6167 34.281C68.0508 34.281 68.4263 34.4615 68.7434 34.8224V32.891H69.7713V38.2538ZM67.0277 36.2272C67.0277 36.6417 67.085 36.9417 67.1996 37.1271C67.3655 37.3953 67.5972 37.5294 67.8947 37.5294C68.1312 37.5294 68.3324 37.4295 68.4983 37.2295C68.6641 37.0271 68.747 36.7259 68.747 36.3259C68.747 35.8796 68.6665 35.5589 68.5056 35.3638C68.3446 35.1663 68.1386 35.0675 67.8874 35.0675C67.6435 35.0675 67.4386 35.1651 67.2728 35.3602C67.1094 35.5528 67.0277 35.8418 67.0277 36.2272Z" fill="black"/>
<path d="M70.5505 36.2564C70.5505 35.915 70.6346 35.5845 70.8029 35.2651C70.9712 34.9456 71.2089 34.7017 71.5162 34.5334C71.8259 34.3652 72.171 34.281 72.5515 34.281C73.1392 34.281 73.6209 34.4725 73.9964 34.8554C74.372 35.2358 74.5598 35.7175 74.5598 36.3003C74.5598 36.8881 74.3695 37.3758 73.9891 37.7636C73.6111 38.1489 73.1343 38.3415 72.5588 38.3415C72.2027 38.3415 71.8625 38.2611 71.5382 38.1001C71.2163 37.9392 70.9712 37.7038 70.8029 37.3941C70.6346 37.0819 70.5505 36.7027 70.5505 36.2564ZM71.604 36.3113C71.604 36.6966 71.6955 36.9917 71.8784 37.1966C72.0613 37.4014 72.2869 37.5038 72.5551 37.5038C72.8234 37.5038 73.0477 37.4014 73.2282 37.1966C73.4111 36.9917 73.5026 36.6942 73.5026 36.304C73.5026 35.9235 73.4111 35.6309 73.2282 35.426C73.0477 35.2212 72.8234 35.1187 72.5551 35.1187C72.2869 35.1187 72.0613 35.2212 71.8784 35.426C71.6955 35.6309 71.604 35.926 71.604 36.3113Z" fill="black"/>
<path d="M75.0061 37.1453L76.0377 36.988C76.0815 37.188 76.1706 37.3404 76.3047 37.4453C76.4388 37.5477 76.6266 37.599 76.868 37.599C77.1339 37.599 77.3338 37.5502 77.468 37.4526C77.5582 37.3843 77.6033 37.2929 77.6033 37.1783C77.6033 37.1002 77.5789 37.0356 77.5302 36.9844C77.479 36.9356 77.3643 36.8905 77.1863 36.849C76.3571 36.6661 75.8316 36.4991 75.6097 36.3479C75.3024 36.1381 75.1487 35.8467 75.1487 35.4736C75.1487 35.137 75.2816 34.8541 75.5475 34.6249C75.8133 34.3957 76.2254 34.281 76.7839 34.281C77.3156 34.281 77.7106 34.3676 77.9691 34.5408C78.2276 34.7139 78.4057 34.97 78.5032 35.309L77.5338 35.4882C77.4924 35.337 77.4131 35.2212 77.296 35.1407C77.1814 35.0602 77.0168 35.02 76.8022 35.02C76.5315 35.02 76.3376 35.0578 76.2206 35.1334C76.1425 35.187 76.1035 35.2565 76.1035 35.3419C76.1035 35.4151 76.1376 35.4772 76.2059 35.5285C76.2986 35.5967 76.6181 35.6931 77.1644 35.8174C77.7131 35.9418 78.096 36.0942 78.313 36.2747C78.5276 36.4576 78.6349 36.7125 78.6349 37.0393C78.6349 37.3953 78.4862 37.7014 78.1886 37.9574C77.8911 38.2135 77.4509 38.3415 76.868 38.3415C76.3388 38.3415 75.9194 38.2342 75.6097 38.0196C75.3024 37.805 75.1012 37.5136 75.0061 37.1453Z" fill="black"/>
<path d="M85.1866 38.2538H84.2318V37.6831C84.0733 37.905 83.8855 38.0708 83.6685 38.1806C83.4539 38.2879 83.2368 38.3415 83.0173 38.3415C82.5711 38.3415 82.1882 38.1623 81.8687 37.8038C81.5517 37.4429 81.3931 36.9405 81.3931 36.2967C81.3931 35.6382 81.548 35.1383 81.8577 34.7968C82.1674 34.453 82.5589 34.281 83.032 34.281C83.4661 34.281 83.8416 34.4615 84.1587 34.8224V32.891H85.1866V38.2538ZM82.443 36.2272C82.443 36.6417 82.5003 36.9417 82.6149 37.1271C82.7808 37.3953 83.0125 37.5294 83.31 37.5294C83.5465 37.5294 83.7477 37.4295 83.9136 37.2295C84.0794 37.0271 84.1623 36.7259 84.1623 36.3259C84.1623 35.8796 84.0819 35.5589 83.9209 35.3638C83.7599 35.1663 83.5539 35.0675 83.3027 35.0675C83.0588 35.0675 82.8539 35.1651 82.6881 35.3602C82.5247 35.5528 82.443 35.8418 82.443 36.2272Z" fill="black"/>
<path d="M88.4533 37.0173L89.4776 37.1892C89.3459 37.5648 89.1374 37.8514 88.852 38.0489C88.5691 38.244 88.2143 38.3415 87.7875 38.3415C87.112 38.3415 86.6121 38.1208 86.2877 37.6794C86.0316 37.3258 85.9036 36.8795 85.9036 36.3406C85.9036 35.6967 86.0719 35.1931 86.4084 34.8298C86.745 34.4639 87.1705 34.281 87.6851 34.281C88.2631 34.281 88.7191 34.4725 89.0532 34.8554C89.3873 35.2358 89.5471 35.8199 89.5325 36.6076H86.9571C86.9645 36.9124 87.0474 37.1502 87.2059 37.3209C87.3644 37.4892 87.5619 37.5733 87.7985 37.5733C87.9595 37.5733 88.0948 37.5294 88.2046 37.4417C88.3143 37.3539 88.3972 37.2124 88.4533 37.0173ZM88.5118 35.9784C88.5045 35.6809 88.4277 35.4553 88.2814 35.3017C88.135 35.1456 87.957 35.0675 87.7473 35.0675C87.5229 35.0675 87.3376 35.1492 87.1913 35.3126C87.0449 35.476 86.973 35.6979 86.9754 35.9784H88.5118Z" fill="black"/>
<path d="M90.3738 38.2538V32.891H91.4017V38.2538H90.3738Z" fill="black"/>
<path d="M97.9827 36.282L99.0326 36.6149C98.8716 37.2002 98.6034 37.6355 98.2278 37.9209C97.8547 38.2038 97.3803 38.3452 96.8048 38.3452C96.0927 38.3452 95.5074 38.1026 95.0489 37.6172C94.5904 37.1295 94.3612 36.4637 94.3612 35.6199C94.3612 34.7273 94.5916 34.0347 95.0526 33.5421C95.5135 33.047 96.1195 32.7995 96.8706 32.7995C97.5267 32.7995 98.0595 32.9934 98.4692 33.3811C98.7131 33.6104 98.896 33.9396 99.018 34.3688L97.9461 34.6249C97.8827 34.3469 97.7498 34.1274 97.5474 33.9664C97.3474 33.8055 97.1035 33.725 96.8158 33.725C96.4182 33.725 96.0951 33.8677 95.8464 34.153C95.6 34.4383 95.4769 34.9005 95.4769 35.5394C95.4769 36.2174 95.5988 36.7003 95.8427 36.988C96.0866 37.2758 96.4036 37.4197 96.7938 37.4197C97.0816 37.4197 97.3291 37.3283 97.5364 37.1453C97.7437 36.9624 97.8925 36.6747 97.9827 36.282Z" fill="black"/>
<path d="M100.726 35.5541L99.7935 35.3858C99.8983 35.0102 100.079 34.7322 100.335 34.5517C100.591 34.3713 100.971 34.281 101.476 34.281C101.935 34.281 102.276 34.3359 102.5 34.4457C102.725 34.553 102.882 34.6907 102.972 34.859C103.065 35.0249 103.111 35.3309 103.111 35.7772L103.1 36.9771C103.1 37.3185 103.116 37.5709 103.148 37.7343C103.182 37.8953 103.244 38.0684 103.335 38.2538H102.318C102.291 38.1855 102.258 38.0843 102.219 37.9501C102.202 37.8892 102.19 37.8489 102.182 37.8294C102.007 38.0001 101.819 38.1282 101.619 38.2135C101.419 38.2989 101.206 38.3415 100.979 38.3415C100.579 38.3415 100.263 38.233 100.031 38.016C99.802 37.7989 99.6874 37.5246 99.6874 37.1929C99.6874 36.9734 99.7398 36.7783 99.8447 36.6076C99.9496 36.4344 100.096 36.3028 100.284 36.2125C100.474 36.1199 100.747 36.0394 101.103 35.9711C101.584 35.8809 101.916 35.7967 102.102 35.7187V35.6163C102.102 35.4187 102.053 35.2785 101.955 35.1956C101.858 35.1102 101.674 35.0675 101.403 35.0675C101.22 35.0675 101.077 35.1041 100.975 35.1773C100.873 35.248 100.79 35.3736 100.726 35.5541ZM102.102 36.3881C101.97 36.432 101.762 36.4844 101.476 36.5454C101.191 36.6064 101.004 36.6661 100.917 36.7247C100.782 36.8198 100.715 36.9405 100.715 37.0868C100.715 37.2307 100.769 37.3551 100.876 37.4599C100.984 37.5648 101.12 37.6172 101.286 37.6172C101.471 37.6172 101.648 37.5563 101.816 37.4343C101.941 37.3417 102.022 37.2283 102.062 37.0941C102.088 37.0063 102.102 36.8393 102.102 36.593V36.3881Z" fill="black"/>
<path d="M104.128 38.2538V32.891H105.156V38.2538H104.128Z" fill="black"/>
<path d="M106.213 38.2538V32.891H107.241V38.2538H106.213Z" fill="black"/>
<path d="M110.548 37.0173L111.573 37.1892C111.441 37.5648 111.232 37.8514 110.947 38.0489C110.664 38.244 110.309 38.3415 109.883 38.3415C109.207 38.3415 108.707 38.1208 108.383 37.6794C108.127 37.3258 107.999 36.8795 107.999 36.3406C107.999 35.6967 108.167 35.1931 108.503 34.8298C108.84 34.4639 109.266 34.281 109.78 34.281C110.358 34.281 110.814 34.4725 111.148 34.8554C111.482 35.2358 111.642 35.8199 111.627 36.6076H109.052C109.059 36.9124 109.142 37.1502 109.301 37.3209C109.459 37.4892 109.657 37.5733 109.894 37.5733C110.054 37.5733 110.19 37.5294 110.3 37.4417C110.409 37.3539 110.492 37.2124 110.548 37.0173ZM110.607 35.9784C110.6 35.6809 110.523 35.4553 110.376 35.3017C110.23 35.1456 110.052 35.0675 109.842 35.0675C109.618 35.0675 109.433 35.1492 109.286 35.3126C109.14 35.476 109.068 35.6979 109.07 35.9784H110.607Z" fill="black"/>
<path d="M118.117 38.2538H117.162V37.6831C117.004 37.905 116.816 38.0708 116.599 38.1806C116.384 38.2879 116.167 38.3415 115.948 38.3415C115.501 38.3415 115.119 38.1623 114.799 37.8038C114.482 37.4429 114.324 36.9405 114.324 36.2967C114.324 35.6382 114.478 35.1383 114.788 34.7968C115.098 34.453 115.489 34.281 115.962 34.281C116.396 34.281 116.772 34.4615 117.089 34.8224V32.891H118.117V38.2538ZM115.373 36.2272C115.373 36.6417 115.431 36.9417 115.545 37.1271C115.711 37.3953 115.943 37.5294 116.24 37.5294C116.477 37.5294 116.678 37.4295 116.844 37.2295C117.01 37.0271 117.093 36.7259 117.093 36.3259C117.093 35.8796 117.012 35.5589 116.851 35.3638C116.69 35.1663 116.484 35.0675 116.233 35.0675C115.989 35.0675 115.784 35.1651 115.618 35.3602C115.455 35.5528 115.373 35.8418 115.373 36.2272Z" fill="black"/>
<path d="M121.384 37.0173L122.408 37.1892C122.276 37.5648 122.068 37.8514 121.782 38.0489C121.5 38.244 121.145 38.3415 120.718 38.3415C120.042 38.3415 119.542 38.1208 119.218 37.6794C118.962 37.3258 118.834 36.8795 118.834 36.3406C118.834 35.6967 119.002 35.1931 119.339 34.8298C119.675 34.4639 120.101 34.281 120.615 34.281C121.193 34.281 121.65 34.4725 121.984 34.8554C122.318 35.2358 122.477 35.8199 122.463 36.6076H119.888C119.895 36.9124 119.978 37.1502 120.136 37.3209C120.295 37.4892 120.492 37.5733 120.729 37.5733C120.89 37.5733 121.025 37.5294 121.135 37.4417C121.245 37.3539 121.328 37.2124 121.384 37.0173ZM121.442 35.9784C121.435 35.6809 121.358 35.4553 121.212 35.3017C121.065 35.1456 120.887 35.0675 120.678 35.0675C120.453 35.0675 120.268 35.1492 120.122 35.3126C119.975 35.476 119.903 35.6979 119.906 35.9784H121.442Z" fill="black"/>
<path d="M125.382 38.2538V32.891H127.003L127.976 36.5491L128.938 32.891H130.562V38.2538H129.556V34.0323L128.491 38.2538H127.449L126.388 34.0323V38.2538H125.382Z" fill="black"/>
<path d="M133.88 37.0173L134.904 37.1892C134.772 37.5648 134.564 37.8514 134.279 38.0489C133.996 38.244 133.641 38.3415 133.214 38.3415C132.539 38.3415 132.039 38.1208 131.714 37.6794C131.458 37.3258 131.33 36.8795 131.33 36.3406C131.33 35.6967 131.498 35.1931 131.835 34.8298C132.171 34.4639 132.597 34.281 133.112 34.281C133.69 34.281 134.146 34.4725 134.48 34.8554C134.814 35.2358 134.974 35.8199 134.959 36.6076H132.384C132.391 36.9124 132.474 37.1502 132.632 37.3209C132.791 37.4892 132.988 37.5733 133.225 37.5733C133.386 37.5733 133.521 37.5294 133.631 37.4417C133.741 37.3539 133.824 37.2124 133.88 37.0173ZM133.938 35.9784C133.931 35.6809 133.854 35.4553 133.708 35.3017C133.562 35.1456 133.384 35.0675 133.174 35.0675C132.949 35.0675 132.764 35.1492 132.618 35.3126C132.471 35.476 132.4 35.6979 132.402 35.9784H133.938ZM132.625 33.8933L133.13 32.7995H134.282L133.276 33.8933H132.625Z" fill="black"/>
<path d="M135.306 38.2538L136.708 36.2528L135.365 34.3688H136.62L137.307 35.437L138.032 34.3688H139.239L137.922 36.2089L139.36 38.2538H138.098L137.307 37.0502L136.51 38.2538H135.306Z" fill="black"/>
<path d="M139.971 33.8421V32.891H140.999V33.8421H139.971ZM139.971 38.2538V34.3688H140.999V38.2538H139.971Z" fill="black"/>
<path d="M145.443 35.5175L144.43 35.7004C144.396 35.498 144.318 35.3455 144.196 35.2431C144.076 35.1407 143.92 35.0895 143.727 35.0895C143.471 35.0895 143.267 35.1785 143.113 35.3565C142.962 35.5321 142.886 35.8272 142.886 36.2418C142.886 36.7027 142.963 37.0283 143.117 37.2185C143.273 37.4087 143.481 37.5038 143.742 37.5038C143.937 37.5038 144.097 37.449 144.221 37.3392C144.346 37.227 144.433 37.0356 144.485 36.7649L145.494 36.9368C145.389 37.4002 145.188 37.7502 144.891 37.9867C144.593 38.2233 144.194 38.3415 143.695 38.3415C143.126 38.3415 142.673 38.1623 142.334 37.8038C141.997 37.4453 141.829 36.949 141.829 36.315C141.829 35.6736 141.998 35.1748 142.337 34.8188C142.676 34.4603 143.135 34.281 143.713 34.281C144.186 34.281 144.562 34.3835 144.84 34.5883C145.12 34.7907 145.321 35.1005 145.443 35.5175Z" fill="black"/>
<path d="M145.988 36.2564C145.988 35.915 146.072 35.5845 146.241 35.2651C146.409 34.9456 146.647 34.7017 146.954 34.5334C147.264 34.3652 147.609 34.281 147.989 34.281C148.577 34.281 149.059 34.4725 149.434 34.8554C149.81 35.2358 149.997 35.7175 149.997 36.3003C149.997 36.8881 149.807 37.3758 149.427 37.7636C149.049 38.1489 148.572 38.3415 147.997 38.3415C147.64 38.3415 147.3 38.2611 146.976 38.1001C146.654 37.9392 146.409 37.7038 146.241 37.3941C146.072 37.0819 145.988 36.7027 145.988 36.2564ZM147.042 36.3113C147.042 36.6966 147.133 36.9917 147.316 37.1966C147.499 37.4014 147.725 37.5038 147.993 37.5038C148.261 37.5038 148.485 37.4014 148.666 37.1966C148.849 36.9917 148.94 36.6942 148.94 36.304C148.94 35.9235 148.849 35.6309 148.666 35.426C148.485 35.2212 148.261 35.1187 147.993 35.1187C147.725 35.1187 147.499 35.2212 147.316 35.426C147.133 35.6309 147.042 35.926 147.042 36.3113Z" fill="black"/>
<path d="M42.211 45.136L43.2609 45.4689C43.1 46.0542 42.8317 46.4895 42.4561 46.7748C42.083 47.0577 41.6087 47.1992 41.0331 47.1992C40.321 47.1992 39.7357 46.9565 39.2772 46.4712C38.8187 45.9835 38.5895 45.3177 38.5895 44.4739C38.5895 43.5813 38.82 42.8887 39.2809 42.3961C39.7418 41.901 40.3478 41.6535 41.099 41.6535C41.755 41.6535 42.2879 41.8474 42.6976 42.2351C42.9414 42.4644 43.1243 42.7936 43.2463 43.2228L42.1744 43.4789C42.111 43.2009 41.9781 42.9814 41.7757 42.8204C41.5757 42.6595 41.3319 42.579 41.0441 42.579C40.6466 42.579 40.3234 42.7216 40.0747 43.007C39.8284 43.2923 39.7052 43.7545 39.7052 44.3934C39.7052 45.0714 39.8272 45.5543 40.071 45.842C40.3149 46.1298 40.6319 46.2737 41.0221 46.2737C41.3099 46.2737 41.5574 46.1822 41.7647 45.9993C41.972 45.8164 42.1208 45.5286 42.211 45.136Z" fill="black"/>
<path d="M44.1864 47.1077V41.7449H45.2143V47.1077H44.1864Z" fill="black"/>
<path d="M47.0397 44.408L46.1069 44.2398C46.2118 43.8642 46.3923 43.5862 46.6483 43.4057C46.9044 43.2252 47.2848 43.135 47.7897 43.135C48.2481 43.135 48.5896 43.1899 48.8139 43.2996C49.0383 43.4069 49.1956 43.5447 49.2858 43.713C49.3785 43.8788 49.4248 44.1849 49.4248 44.6312L49.4139 45.831C49.4139 46.1725 49.4297 46.4249 49.4614 46.5883C49.4956 46.7492 49.5578 46.9224 49.648 47.1077H48.631C48.6042 47.0394 48.5713 46.9382 48.5323 46.8041C48.5152 46.7431 48.503 46.7029 48.4957 46.6834C48.3201 46.8541 48.1323 46.9821 47.9323 47.0675C47.7323 47.1528 47.519 47.1955 47.2922 47.1955C46.8922 47.1955 46.5764 47.087 46.3447 46.87C46.1155 46.6529 46.0008 46.3785 46.0008 46.0469C46.0008 45.8274 46.0533 45.6323 46.1581 45.4616C46.263 45.2884 46.4093 45.1567 46.5971 45.0665C46.7873 44.9738 47.0605 44.8934 47.4165 44.8251C47.897 44.7348 48.2299 44.6507 48.4152 44.5727V44.4702C48.4152 44.2727 48.3664 44.1325 48.2689 44.0495C48.1713 43.9642 47.9872 43.9215 47.7165 43.9215C47.5336 43.9215 47.3909 43.9581 47.2885 44.0313C47.1861 44.102 47.1032 44.2276 47.0397 44.408ZM48.4152 45.2421C48.2835 45.286 48.075 45.3384 47.7897 45.3994C47.5043 45.4604 47.3178 45.5201 47.23 45.5786C47.0958 45.6737 47.0288 45.7945 47.0288 45.9408C47.0288 46.0847 47.0824 46.2091 47.1897 46.3139C47.297 46.4188 47.4336 46.4712 47.5994 46.4712C47.7848 46.4712 47.9616 46.4102 48.1299 46.2883C48.2542 46.1956 48.3359 46.0822 48.375 45.9481C48.4018 45.8603 48.4152 45.6933 48.4152 45.4469V45.2421Z" fill="black"/>
<path d="M51.51 47.1077L49.9443 43.2228H51.0234L51.7551 45.2055L51.9672 45.8676C52.0233 45.6994 52.0587 45.5884 52.0733 45.5347C52.1075 45.425 52.144 45.3153 52.1831 45.2055L52.922 43.2228H53.9792L52.4355 47.1077H51.51Z" fill="black"/>
<path d="M56.8618 45.8713L57.8861 46.0432C57.7544 46.4188 57.5459 46.7053 57.2605 46.9029C56.9776 47.098 56.6228 47.1955 56.196 47.1955C55.5205 47.1955 55.0205 46.9748 54.6962 46.5334C54.4401 46.1798 54.3121 45.7335 54.3121 45.1945C54.3121 44.5507 54.4804 44.0471 54.8169 43.6837C55.1535 43.3179 55.579 43.135 56.0936 43.135C56.6716 43.135 57.1276 43.3265 57.4617 43.7093C57.7958 44.0898 57.9556 44.6739 57.9409 45.4616H55.3656C55.3729 45.7664 55.4559 46.0042 55.6144 46.1749C55.7729 46.3432 55.9704 46.4273 56.207 46.4273C56.3679 46.4273 56.5033 46.3834 56.613 46.2956C56.7228 46.2078 56.8057 46.0664 56.8618 45.8713ZM56.9203 44.8324C56.913 44.5349 56.8362 44.3093 56.6899 44.1556C56.5435 43.9995 56.3655 43.9215 56.1558 43.9215C55.9314 43.9215 55.7461 44.0032 55.5997 44.1666C55.4534 44.33 55.3815 44.5519 55.3839 44.8324H56.9203Z" fill="black"/>
<path d="M63.2781 47.1077H62.2502V43.2338C61.8746 43.585 61.432 43.8447 60.9223 44.013V43.0801C61.1906 42.9923 61.482 42.8265 61.7966 42.5826C62.1112 42.3363 62.327 42.0498 62.4441 41.723H63.2781V47.1077Z" fill="black"/>
<path d="M66.5558 41.723C67.0753 41.723 67.4813 41.9083 67.774 42.279C68.1227 42.718 68.2971 43.446 68.2971 44.4629C68.2971 45.4774 68.1215 46.2066 67.7703 46.6505C67.4801 47.0163 67.0753 47.1992 66.5558 47.1992C66.0339 47.1992 65.6132 46.9992 65.2938 46.5993C64.9743 46.1969 64.8145 45.4811 64.8145 44.4519C64.8145 43.4423 64.9901 42.7156 65.3413 42.2717C65.6315 41.9059 66.0364 41.723 66.5558 41.723ZM66.5558 42.5753C66.4314 42.5753 66.3205 42.6156 66.2229 42.696C66.1254 42.7741 66.0498 42.9155 65.9961 43.1204C65.9254 43.3862 65.89 43.8337 65.89 44.4629C65.89 45.0921 65.9217 45.525 65.9851 45.7615C66.0485 45.9957 66.1278 46.1517 66.2229 46.2298C66.3205 46.3078 66.4314 46.3468 66.5558 46.3468C66.6802 46.3468 66.7911 46.3078 66.8887 46.2298C66.9862 46.1493 67.0618 46.0066 67.1155 45.8018C67.1862 45.5384 67.2216 45.0921 67.2216 44.4629C67.2216 43.8337 67.1899 43.4021 67.1265 43.1679C67.0631 42.9314 66.9826 42.7741 66.885 42.696C66.7899 42.6156 66.6802 42.5753 66.5558 42.5753Z" fill="black"/>
<path d="M69.1823 46.0798H70.2103V46.8151C70.2103 47.1126 70.1847 47.3467 70.1334 47.5174C70.0822 47.6906 69.9847 47.8455 69.8408 47.982C69.6994 48.1186 69.5189 48.2259 69.2994 48.3039L69.0982 47.8796C69.3055 47.8113 69.453 47.7174 69.5408 47.5979C69.6286 47.4784 69.675 47.315 69.6798 47.1077H69.1823V46.0798Z" fill="black"/>
<path d="M73.1112 45.3628L74.1647 45.2604C74.2281 45.614 74.3561 45.8737 74.5488 46.0396C74.7439 46.2054 75.0061 46.2883 75.3353 46.2883C75.684 46.2883 75.9462 46.2152 76.1218 46.0688C76.2998 45.9201 76.3888 45.7469 76.3888 45.5494C76.3888 45.4226 76.351 45.3153 76.2754 45.2275C76.2023 45.1372 76.073 45.0592 75.8877 44.9933C75.7609 44.9494 75.4719 44.8714 75.0207 44.7592C74.4403 44.6153 74.033 44.4385 73.7989 44.2288C73.4697 43.9337 73.305 43.574 73.305 43.1496C73.305 42.8765 73.3819 42.6217 73.5355 42.3851C73.6916 42.1461 73.9147 41.9644 74.2049 41.84C74.4976 41.7157 74.85 41.6535 75.2621 41.6535C75.9352 41.6535 76.4413 41.801 76.7802 42.0961C77.1217 42.3912 77.3009 42.7851 77.318 43.2777L76.2352 43.3252C76.1889 43.0497 76.0889 42.8521 75.9352 42.7326C75.784 42.6107 75.556 42.5497 75.2512 42.5497C74.9366 42.5497 74.6902 42.6143 74.5122 42.7436C74.3976 42.8265 74.3403 42.9375 74.3403 43.0765C74.3403 43.2033 74.3939 43.3118 74.5012 43.4021C74.6378 43.5167 74.9695 43.6362 75.4962 43.7606C76.023 43.8849 76.412 44.0142 76.6632 44.1483C76.9168 44.28 77.1144 44.4617 77.2558 44.6934C77.3997 44.9226 77.4716 45.2067 77.4716 45.5457C77.4716 45.853 77.3863 46.1408 77.2156 46.409C77.0449 46.6773 76.8034 46.8773 76.4913 47.009C76.1791 47.1382 75.7901 47.2028 75.3243 47.2028C74.6463 47.2028 74.1257 47.0468 73.7623 46.7346C73.3989 46.42 73.1819 45.9627 73.1112 45.3628Z" fill="black"/>
<path d="M78.3752 47.1077V46.0798H79.4031V47.1077H78.3752Z" fill="black"/>
<path d="M85.3037 47.1077H84.1258L83.6575 45.8896H81.5139L81.0712 47.1077H79.9226L82.0114 41.7449H83.1564L85.3037 47.1077ZM83.31 44.986L82.5711 42.996L81.8467 44.986H83.31Z" fill="black"/>
<path d="M91.2445 47.1077H90.2897V46.5371C90.1312 46.759 89.9434 46.9248 89.7263 47.0346C89.5117 47.1419 89.2947 47.1955 89.0752 47.1955C88.6289 47.1955 88.246 47.0163 87.9265 46.6578C87.6095 46.2968 87.451 45.7945 87.451 45.1506C87.451 44.4922 87.6058 43.9922 87.9156 43.6508C88.2253 43.3069 88.6167 43.135 89.0898 43.135C89.5239 43.135 89.8995 43.3155 90.2165 43.6764V41.7449H91.2445V47.1077ZM88.5009 45.0811C88.5009 45.4957 88.5582 45.7957 88.6728 45.981C88.8386 46.2493 89.0703 46.3834 89.3678 46.3834C89.6044 46.3834 89.8056 46.2834 89.9714 46.0835C90.1373 45.881 90.2202 45.5799 90.2202 45.1799C90.2202 44.7336 90.1397 44.4129 89.9787 44.2178C89.8178 44.0203 89.6117 43.9215 89.3605 43.9215C89.1166 43.9215 88.9118 44.0191 88.746 44.2142C88.5826 44.4068 88.5009 44.6958 88.5009 45.0811Z" fill="black"/>
<path d="M94.5111 45.8713L95.5354 46.0432C95.4037 46.4188 95.1952 46.7053 94.9099 46.9029C94.627 47.098 94.2722 47.1955 93.8454 47.1955C93.1698 47.1955 92.6699 46.9748 92.3455 46.5334C92.0895 46.1798 91.9614 45.7335 91.9614 45.1945C91.9614 44.5507 92.1297 44.0471 92.4663 43.6837C92.8028 43.3179 93.2284 43.135 93.7429 43.135C94.3209 43.135 94.777 43.3265 95.1111 43.7093C95.4452 44.0898 95.6049 44.6739 95.5903 45.4616H93.015C93.0223 45.7664 93.1052 46.0042 93.2637 46.1749C93.4222 46.3432 93.6198 46.4273 93.8563 46.4273C94.0173 46.4273 94.1527 46.3834 94.2624 46.2956C94.3721 46.2078 94.4551 46.0664 94.5111 45.8713ZM94.5697 44.8324C94.5624 44.5349 94.4855 44.3093 94.3392 44.1556C94.1929 43.9995 94.0149 43.9215 93.8051 43.9215C93.5808 43.9215 93.3954 44.0032 93.2491 44.1666C93.1028 44.33 93.0308 44.5519 93.0333 44.8324H94.5697Z" fill="black"/>
<path d="M101.955 45.136L103.005 45.4689C102.844 46.0542 102.576 46.4895 102.201 46.7748C101.827 47.0577 101.353 47.1992 100.778 47.1992C100.065 47.1992 99.4801 46.9565 99.0216 46.4712C98.5631 45.9835 98.3339 45.3177 98.3339 44.4739C98.3339 43.5813 98.5643 42.8887 99.0253 42.3961C99.4862 41.901 100.092 41.6535 100.843 41.6535C101.499 41.6535 102.032 41.8474 102.442 42.2351C102.686 42.4644 102.869 42.7936 102.991 43.2228L101.919 43.4789C101.855 43.2009 101.723 42.9814 101.52 42.8204C101.32 42.6595 101.076 42.579 100.788 42.579C100.391 42.579 100.068 42.7216 99.8191 43.007C99.5728 43.2923 99.4496 43.7545 99.4496 44.3934C99.4496 45.0714 99.5715 45.5543 99.8154 45.842C100.059 46.1298 100.376 46.2737 100.767 46.2737C101.054 46.2737 101.302 46.1822 101.509 45.9993C101.716 45.8164 101.865 45.5286 101.955 45.136Z" fill="black"/>
<path d="M103.931 47.1077V46.0798H104.959V47.1077H103.931Z" fill="black"/>
<path d="M107.391 47.1077L105.475 41.7449H106.649L108.006 45.714L109.319 41.7449H110.468L108.547 47.1077H107.391Z" fill="black"/>
<path d="M110.325 47.1077V46.0798H111.353V47.1077H110.325Z" fill="black"/>
</svg>
